<svg xmlns="http://www.w3.org/2000/svg" width="38.546" height="46.255" viewBox="0 0 38.546 46.255">
  <g id="services3" transform="translate(0)">
    <path id="Path_237" data-name="Path 237" d="M25.309,24.927H7.964a.964.964,0,0,1,0-1.927H25.309a.964.964,0,1,1,0,1.927Z" transform="translate(2.636 21.328)" fill="#e67118"/>
    <path id="Path_238" data-name="Path 238" d="M28.575,25.055H8.073A2.89,2.89,0,0,1,5.22,21.69L8.433,2.417A2.878,2.878,0,0,1,11.284,0H25.364a2.878,2.878,0,0,1,2.85,2.415l3.213,19.273a2.892,2.892,0,0,1-2.852,3.367ZM11.284,1.927a.961.961,0,0,0-.95.8L7.121,22a.965.965,0,0,0,.952,1.124h20.5A.965.965,0,0,0,29.529,22L26.316,2.731a.964.964,0,0,0-.952-.8Z" transform="translate(0.949 0)" fill="#e67118"/>
    <path id="Path_239" data-name="Path 239" d="M12.464,29.564A.964.964,0,0,1,11.5,28.6V18.964a.964.964,0,0,1,1.927,0V28.6A.964.964,0,0,1,12.464,29.564Z" transform="translate(6.809 16.691)" fill="#e67118"/>
    <path id="Path_240" data-name="Path 240" d="M33.873,23.637H4.964A.964.964,0,0,1,4,22.673V18.818A4.825,4.825,0,0,1,8.818,14h21.2a4.825,4.825,0,0,1,4.818,4.818v3.855A.964.964,0,0,1,33.873,23.637ZM5.927,21.709H32.91V18.818a2.894,2.894,0,0,0-2.891-2.891H8.818a2.894,2.894,0,0,0-2.891,2.891Z" transform="translate(-0.145 12.982)" fill="#e67118"/>
    <path id="Path_241" data-name="Path 241" d="M19.964,23.564A.964.964,0,0,1,19,22.6V16.818A4.825,4.825,0,0,1,23.818,12a.964.964,0,1,1,0,1.927,2.894,2.894,0,0,0-2.891,2.891V22.6A.964.964,0,0,1,19.964,23.564Z" transform="translate(13.764 11.128)" fill="#e67118"/>
    <path id="Path_242" data-name="Path 242" d="M6.818,23.564a.964.964,0,0,1-.964-.964V16.818a2.894,2.894,0,0,0-2.891-2.891.964.964,0,1,1,0-1.927,4.825,4.825,0,0,1,4.818,4.818V22.6A.964.964,0,0,1,6.818,23.564Z" transform="translate(-2 11.128)" fill="#e67118"/>
  </g>
</svg>
