<svg xmlns="http://www.w3.org/2000/svg" width="50.374" height="32.495" viewBox="0 0 50.374 32.495">
  <g id="services2" transform="translate(0)">
    <path id="Path_243" data-name="Path 243" d="M27.191,17.891A149.4,149.4,0,0,1,2.627,15.856a.72.72,0,0,1,.215-1.423,147.781,147.781,0,0,0,48.7,0,.72.72,0,0,1,.236,1.42,149.462,149.462,0,0,1-24.585,2.039Z" transform="translate(-2.004 -14.422)" fill="#e67118"/>
    <path id="Path_244" data-name="Path 244" d="M13.156,28.7a.72.72,0,0,1-.666-.445l-4.945-12A.72.72,0,1,1,8.876,15.7l4.28,10.388,3.857-9.372a.72.72,0,0,1,1.331.548L13.821,28.254a.72.72,0,0,1-.666.446Z" transform="translate(-3.539 -14.656)" fill="#e67118"/>
    <path id="Path_245" data-name="Path 245" d="M35.012,29.234a.72.72,0,0,1-.666-.445L29.965,18.157a.72.72,0,1,1,1.331-.548l3.716,9.018,3.716-9.018a.72.72,0,0,1,1.331.548L35.678,28.788A.72.72,0,0,1,35.012,29.234Z" transform="translate(-9.825 -15.191)" fill="#e67118"/>
    <path id="Path_246" data-name="Path 246" d="M56.594,28.7a.72.72,0,0,1-.666-.445L51.406,17.266a.72.72,0,1,1,1.331-.548l3.857,9.372L60.874,15.7a.72.72,0,1,1,1.331.548l-4.945,12A.72.72,0,0,1,56.594,28.7Z" transform="translate(-15.837 -14.656)" fill="#e67118"/>
    <path id="Path_247" data-name="Path 247" d="M27.615,42.835A72.936,72.936,0,0,1,2.472,38.181a.72.72,0,0,1,.5-1.351c16.634,6.083,32.927,6.083,48.424.006a.72.72,0,1,1,.525,1.34,66.1,66.1,0,0,1-24.3,4.66Z" transform="translate(-2 -20.693)" fill="#e67118"/>
    <path id="Path_248" data-name="Path 248" d="M13.15,53.651a.72.72,0,0,1-.581-.3L9.475,49.118,4.714,51.344a.72.72,0,0,1-1-.83L6.6,39.243A.72.72,0,0,1,8,39.6L5.485,49.394,9.4,47.564a.72.72,0,0,1,.886.227l2.547,3.484,2.529-9.881a.72.72,0,0,1,1.395.36L13.848,53.11a.72.72,0,0,1-.7.541Z" transform="translate(-2.473 -21.23)" fill="#e67118"/>
    <path id="Path_249" data-name="Path 249" d="M30.446,54.918a.72.72,0,0,1-.72-.72V43.678a.72.72,0,1,1,1.439,0v8.989l3.322-2.753a.72.72,0,0,1,.914,0l3.356,2.735V43.737a.72.72,0,1,1,1.439,0V54.161a.72.72,0,0,1-1.174.558L34.95,51.4,30.9,54.752a.72.72,0,0,1-.459.166Z" transform="translate(-9.774 -22.423)" fill="#e67118"/>
    <path id="Path_250" data-name="Path 250" d="M55.761,53.679a.72.72,0,0,1-.7-.541L52.185,41.89a.72.72,0,0,1,1.395-.36l2.5,9.77,2.547-3.484a.72.72,0,0,1,.886-.227l3.913,1.831L60.936,39.7a.72.72,0,0,1,1.395-.36l2.869,11.2a.72.72,0,0,1-1,.83L59.44,49.144l-3.094,4.238A.72.72,0,0,1,55.761,53.679Z" transform="translate(-16.064 -21.258)" fill="#e67118"/>
  </g>
</svg>
